<svg id="svg" version="1.1" xmlns="http://www.w3.org/2000/svg" xmlns:xlink="http://www.w3.org/1999/xlink" width="400" height="400" viewBox="0, 0, 400,400"><g id="svgg"><path id="path0" d="M90.851 55.339 C 90.516 55.742,90.425 94.004,90.499 202.642 L 90.600 349.400 116.100 349.503 L 141.600 349.606 141.600 284.070 C 141.600 248.025,141.708 218.425,141.841 218.293 C 142.130 218.004,146.040 221.911,148.922 225.367 C 152.999 230.259,156.149 233.808,156.871 234.324 C 157.274 234.613,157.880 235.381,158.216 236.031 C 158.552 236.681,160.267 238.670,162.026 240.451 C 163.786 242.232,165.498 244.217,165.832 244.861 C 166.165 245.506,167.922 247.511,169.736 249.317 C 171.549 251.123,173.296 253.131,173.617 253.779 C 174.168 254.894,175.451 256.304,178.335 258.965 C 179.029 259.606,180.135 261.083,180.791 262.246 C 181.448 263.409,182.596 264.776,183.344 265.284 C 184.906 266.346,186.881 268.624,188.580 271.324 C 189.229 272.356,189.885 273.200,190.037 273.200 C 190.612 273.200,195.600 278.498,195.600 279.108 C 195.600 279.296,196.158 279.979,196.840 280.625 C 197.521 281.271,200.531 284.680,203.528 288.200 C 206.524 291.720,209.656 295.207,210.488 295.948 C 211.320 296.690,212.000 297.538,212.000 297.833 C 212.000 298.128,213.618 300.001,215.595 301.995 C 217.573 303.990,219.474 306.169,219.820 306.838 C 220.166 307.508,221.743 309.368,223.325 310.972 C 224.906 312.575,226.650 314.652,227.200 315.586 C 227.750 316.520,229.416 318.364,230.901 319.684 C 232.387 321.005,233.907 322.741,234.278 323.542 C 234.649 324.344,235.494 325.450,236.154 326.000 C 238.333 327.813,241.261 331.020,242.000 332.401 C 242.282 332.926,243.677 334.521,245.100 335.945 C 246.524 337.369,248.254 339.286,248.945 340.206 C 249.635 341.125,251.725 343.615,253.590 345.739 L 256.979 349.600 290.090 349.600 C 310.467 349.600,323.200 349.456,323.200 349.224 C 323.200 349.018,322.501 348.041,321.647 347.054 C 320.792 346.067,319.852 344.715,319.558 344.050 C 319.263 343.384,318.607 342.618,318.098 342.346 C 317.590 342.074,316.542 341.079,315.769 340.135 C 314.995 339.192,314.140 338.190,313.867 337.910 C 313.594 337.629,312.858 336.721,312.232 335.892 C 311.605 335.062,310.383 333.622,309.517 332.692 C 308.651 331.761,305.874 328.549,303.346 325.554 C 300.818 322.559,298.329 319.883,297.815 319.608 C 297.301 319.333,296.575 318.432,296.203 317.606 C 295.830 316.780,293.832 314.373,291.763 312.255 C 289.693 310.138,287.998 308.180,287.995 307.903 C 287.990 307.414,286.787 306.087,283.013 302.413 C 282.004 301.429,280.641 299.674,279.985 298.513 C 279.330 297.351,278.612 296.400,278.390 296.400 C 277.800 296.400,274.431 292.799,273.712 291.400 C 273.373 290.740,271.830 288.940,270.283 287.400 C 268.736 285.860,266.961 283.802,266.339 282.827 C 265.716 281.852,264.515 280.412,263.670 279.627 C 262.825 278.842,260.259 275.957,257.967 273.216 C 255.675 270.475,252.855 267.264,251.700 266.081 C 250.545 264.897,249.600 263.754,249.600 263.541 C 249.600 263.087,246.950 260.140,244.457 257.821 C 243.499 256.930,242.391 255.570,241.995 254.800 C 241.312 253.471,239.947 251.951,236.602 248.800 C 235.785 248.030,234.793 246.768,234.399 245.996 C 234.005 245.224,233.011 243.964,232.190 243.196 C 228.901 240.118,227.514 238.514,226.573 236.700 C 226.030 235.655,225.406 234.800,225.184 234.800 C 224.520 234.800,220.520 230.382,219.748 228.796 C 219.353 227.983,218.523 226.958,217.903 226.518 C 217.284 226.078,215.048 223.666,212.934 221.159 C 210.821 218.652,207.955 215.340,206.566 213.800 C 205.176 212.260,202.870 209.550,201.441 207.779 C 200.011 206.007,198.428 204.335,197.921 204.064 C 197.414 203.792,196.518 202.664,195.928 201.557 L 194.857 199.543 195.928 197.821 C 196.518 196.873,198.620 194.166,200.600 191.804 C 202.580 189.442,204.270 187.305,204.357 187.055 C 204.634 186.250,210.026 180.000,210.443 180.000 C 210.664 180.000,211.209 179.177,211.654 178.171 C 212.100 177.162,213.799 174.965,215.442 173.271 C 217.080 171.582,218.838 169.390,219.347 168.400 C 219.857 167.410,221.208 165.650,222.349 164.489 C 223.491 163.327,225.081 161.347,225.883 160.089 C 226.686 158.830,227.566 157.620,227.840 157.400 C 228.505 156.866,233.762 150.287,235.936 147.269 C 236.891 145.943,238.469 144.081,239.443 143.129 C 240.418 142.178,241.757 140.449,242.419 139.286 C 243.081 138.123,244.890 135.882,246.438 134.306 C 247.986 132.730,249.603 130.671,250.031 129.732 C 250.459 128.792,251.545 127.343,252.444 126.512 C 253.343 125.680,255.084 123.650,256.313 122.000 C 259.106 118.249,263.410 112.960,264.883 111.469 C 265.497 110.847,266.000 110.153,266.000 109.926 C 266.000 109.289,269.921 104.511,271.178 103.616 C 271.793 103.178,272.784 101.823,273.380 100.605 C 273.992 99.354,275.488 97.402,276.817 96.118 C 278.112 94.868,279.724 92.808,280.399 91.541 C 281.075 90.273,282.148 88.823,282.785 88.318 C 284.025 87.334,288.000 82.506,288.000 81.983 C 288.000 81.810,289.890 79.478,292.200 76.800 C 294.510 74.122,296.400 71.790,296.400 71.617 C 296.400 71.093,300.097 66.640,301.699 65.234 C 302.524 64.510,303.562 63.096,304.007 62.092 C 304.451 61.087,305.801 59.310,307.007 58.142 C 310.761 54.506,313.315 54.800,278.001 54.800 L 246.803 54.800 244.766 56.900 C 243.646 58.055,242.399 59.630,241.994 60.400 C 241.006 62.280,239.769 63.807,237.547 65.893 C 236.528 66.850,235.127 68.697,234.433 69.999 C 233.739 71.300,232.567 72.868,231.828 73.483 C 230.607 74.499,228.495 77.010,226.685 79.600 C 226.301 80.150,225.181 81.590,224.196 82.800 C 223.212 84.010,220.831 87.064,218.906 89.587 C 216.980 92.110,214.718 94.810,213.880 95.587 C 213.041 96.364,212.114 97.560,211.821 98.245 C 211.147 99.815,210.416 100.736,207.269 103.974 C 205.878 105.406,204.399 107.303,203.984 108.189 C 203.568 109.075,201.893 111.208,200.262 112.930 C 198.630 114.651,196.885 116.856,196.385 117.830 C 195.884 118.803,195.350 119.600,195.199 119.600 C 195.047 119.600,193.692 121.130,192.188 123.000 C 190.684 124.870,189.337 126.400,189.195 126.400 C 189.052 126.400,188.687 126.895,188.384 127.500 C 187.551 129.162,183.689 133.923,182.589 134.644 C 182.056 134.993,181.137 136.268,180.545 137.476 C 179.946 138.700,178.442 140.667,177.149 141.914 C 175.873 143.147,174.279 145.187,173.606 146.449 C 172.934 147.710,171.854 149.189,171.206 149.734 C 169.682 151.016,166.000 155.439,166.000 155.988 C 166.000 156.220,165.378 157.083,164.618 157.905 C 162.904 159.761,157.862 165.973,157.366 166.842 C 156.711 167.990,154.242 170.958,152.400 172.811 C 151.410 173.808,150.175 175.457,149.656 176.476 C 149.136 177.494,147.726 179.262,146.522 180.403 C 145.318 181.544,143.808 183.306,143.166 184.317 C 142.525 185.329,141.956 186.076,141.903 185.978 C 141.850 185.880,141.715 156.370,141.603 120.400 L 141.400 55.000 116.351 54.897 C 95.612 54.812,91.225 54.888,90.851 55.339 " stroke="none" fill="#f4f3f3" fill-rule="evenodd"></path><path id="path1" d="M0.000 200.000 L 0.000 400.000 200.000 400.000 L 400.000 400.000 400.000 200.000 L 400.000 0.000 200.000 0.000 L 0.000 0.000 0.000 200.000 M141.603 120.400 C 141.715 156.370,141.850 185.880,141.903 185.978 C 141.956 186.076,142.525 185.329,143.166 184.317 C 143.808 183.306,145.318 181.544,146.522 180.403 C 147.726 179.262,149.136 177.494,149.656 176.476 C 150.175 175.457,151.410 173.808,152.400 172.811 C 154.242 170.958,156.711 167.990,157.366 166.842 C 157.862 165.973,162.904 159.761,164.618 157.905 C 165.378 157.083,166.000 156.220,166.000 155.988 C 166.000 155.439,169.682 151.016,171.206 149.734 C 171.854 149.189,172.934 147.710,173.606 146.449 C 174.279 145.187,175.873 143.147,177.149 141.914 C 178.442 140.667,179.946 138.700,180.545 137.476 C 181.137 136.268,182.056 134.993,182.589 134.644 C 183.689 133.923,187.551 129.162,188.384 127.500 C 188.687 126.895,189.052 126.400,189.195 126.400 C 189.337 126.400,190.684 124.870,192.188 123.000 C 193.692 121.130,195.047 119.600,195.199 119.600 C 195.350 119.600,195.884 118.803,196.385 117.830 C 196.885 116.856,198.630 114.651,200.262 112.930 C 201.893 111.208,203.568 109.075,203.984 108.189 C 204.399 107.303,205.878 105.406,207.269 103.974 C 210.416 100.736,211.147 99.815,211.821 98.245 C 212.114 97.560,213.041 96.364,213.880 95.587 C 214.718 94.810,216.980 92.110,218.906 89.587 C 220.831 87.064,223.212 84.010,224.196 82.800 C 225.181 81.590,226.301 80.150,226.685 79.600 C 228.495 77.010,230.607 74.499,231.828 73.483 C 232.567 72.868,233.739 71.300,234.433 69.999 C 235.127 68.697,236.528 66.850,237.547 65.893 C 239.769 63.807,241.006 62.280,241.994 60.400 C 242.399 59.630,243.646 58.055,244.766 56.900 L 246.803 54.800 278.001 54.800 C 313.315 54.800,310.761 54.506,307.007 58.142 C 305.801 59.310,304.451 61.087,304.007 62.092 C 303.562 63.096,302.524 64.510,301.699 65.234 C 300.097 66.640,296.400 71.093,296.400 71.617 C 296.400 71.790,294.510 74.122,292.200 76.800 C 289.890 79.478,288.000 81.810,288.000 81.983 C 288.000 82.506,284.025 87.334,282.785 88.318 C 282.148 88.823,281.075 90.273,280.399 91.541 C 279.724 92.808,278.112 94.868,276.817 96.118 C 275.488 97.402,273.992 99.354,273.380 100.605 C 272.784 101.823,271.793 103.178,271.178 103.616 C 269.921 104.511,266.000 109.289,266.000 109.926 C 266.000 110.153,265.497 110.847,264.883 111.469 C 263.410 112.960,259.106 118.249,256.313 122.000 C 255.084 123.650,253.343 125.680,252.444 126.512 C 251.545 127.343,250.459 128.792,250.031 129.732 C 249.603 130.671,247.986 132.730,246.438 134.306 C 244.890 135.882,243.081 138.123,242.419 139.286 C 241.757 140.449,240.418 142.178,239.443 143.129 C 238.469 144.081,236.891 145.943,235.936 147.269 C 233.762 150.287,228.505 156.866,227.840 157.400 C 227.566 157.620,226.686 158.830,225.883 160.089 C 225.081 161.347,223.491 163.327,222.349 164.489 C 221.208 165.650,219.857 167.410,219.347 168.400 C 218.838 169.390,217.080 171.582,215.442 173.271 C 213.799 174.965,212.100 177.162,211.654 178.171 C 211.209 179.177,210.664 180.000,210.443 180.000 C 210.026 180.000,204.634 186.250,204.357 187.055 C 204.270 187.305,202.580 189.442,200.600 191.804 C 198.620 194.166,196.518 196.873,195.928 197.821 L 194.857 199.543 195.928 201.557 C 196.518 202.664,197.414 203.792,197.921 204.064 C 198.428 204.335,200.011 206.007,201.441 207.779 C 202.870 209.550,205.176 212.260,206.566 213.800 C 207.955 215.340,210.821 218.652,212.934 221.159 C 215.048 223.666,217.284 226.078,217.903 226.518 C 218.523 226.958,219.353 227.983,219.748 228.796 C 220.520 230.382,224.520 234.800,225.184 234.800 C 225.406 234.800,226.030 235.655,226.573 236.700 C 227.514 238.514,228.901 240.118,232.190 243.196 C 233.011 243.964,234.005 245.224,234.399 245.996 C 234.793 246.768,235.785 248.030,236.602 248.800 C 239.947 251.951,241.312 253.471,241.995 254.800 C 242.391 255.570,243.499 256.930,244.457 257.821 C 246.950 260.140,249.600 263.087,249.600 263.541 C 249.600 263.754,250.545 264.897,251.700 266.081 C 252.855 267.264,255.675 270.475,257.967 273.216 C 260.259 275.957,262.825 278.842,263.670 279.627 C 264.515 280.412,265.716 281.852,266.339 282.827 C 266.961 283.802,268.736 285.860,270.283 287.400 C 271.830 288.940,273.373 290.740,273.712 291.400 C 274.431 292.799,277.800 296.400,278.390 296.400 C 278.612 296.400,279.330 297.351,279.985 298.513 C 280.641 299.674,282.004 301.429,283.013 302.413 C 286.787 306.087,287.990 307.414,287.995 307.903 C 287.998 308.180,289.693 310.138,291.763 312.255 C 293.832 314.373,295.830 316.780,296.203 317.606 C 296.575 318.432,297.301 319.333,297.815 319.608 C 298.329 319.883,300.818 322.559,303.346 325.554 C 305.874 328.549,308.651 331.761,309.517 332.692 C 310.383 333.622,311.605 335.062,312.232 335.892 C 312.858 336.721,313.594 337.629,313.867 337.910 C 314.140 338.190,314.995 339.192,315.769 340.135 C 316.542 341.079,317.590 342.074,318.098 342.346 C 318.607 342.618,319.263 343.384,319.558 344.050 C 319.852 344.715,320.792 346.067,321.647 347.054 C 322.501 348.041,323.200 349.018,323.200 349.224 C 323.200 349.456,310.467 349.600,290.090 349.600 L 256.979 349.600 253.590 345.739 C 251.725 343.615,249.635 341.125,248.945 340.206 C 248.254 339.286,246.524 337.369,245.100 335.945 C 243.677 334.521,242.282 332.926,242.000 332.401 C 241.261 331.020,238.333 327.813,236.154 326.000 C 235.494 325.450,234.649 324.344,234.278 323.542 C 233.907 322.741,232.387 321.005,230.901 319.684 C 229.416 318.364,227.750 316.520,227.200 315.586 C 226.650 314.652,224.906 312.575,223.325 310.972 C 221.743 309.368,220.166 307.508,219.820 306.838 C 219.474 306.169,217.573 303.990,215.595 301.995 C 213.618 300.001,212.000 298.128,212.000 297.833 C 212.000 297.538,211.320 296.690,210.488 295.948 C 209.656 295.207,206.524 291.720,203.528 288.200 C 200.531 284.680,197.521 281.271,196.840 280.625 C 196.158 279.979,195.600 279.296,195.600 279.108 C 195.600 278.498,190.612 273.200,190.037 273.200 C 189.885 273.200,189.229 272.356,188.580 271.324 C 186.881 268.624,184.906 266.346,183.344 265.284 C 182.596 264.776,181.448 263.409,180.791 262.246 C 180.135 261.083,179.029 259.606,178.335 258.965 C 175.451 256.304,174.168 254.894,173.617 253.779 C 173.296 253.131,171.549 251.123,169.736 249.317 C 167.922 247.511,166.165 245.506,165.832 244.861 C 165.498 244.217,163.786 242.232,162.026 240.451 C 160.267 238.670,158.552 236.681,158.216 236.031 C 157.880 235.381,157.274 234.613,156.871 234.324 C 156.149 233.808,152.999 230.259,148.922 225.367 C 146.040 221.911,142.130 218.004,141.841 218.293 C 141.708 218.425,141.600 248.025,141.600 284.070 L 141.600 349.606 116.100 349.503 L 90.600 349.400 90.499 202.642 C 90.425 94.004,90.516 55.742,90.851 55.339 C 91.225 54.888,95.612 54.812,116.351 54.897 L 141.400 55.000 141.603 120.400 " stroke="none" fill="#ec4c74" fill-rule="evenodd"></path></g></svg>